[Header]
FileType HTR
DataType HTRS
FileVersion 1
NumSegments 64
NumFrames 4
DataFrameRate 24
EulerRotationOrder ZYX
CalibrationUnits mm
RotationUnits Degrees
GlobalAxisofGravity Y
BoneLengthAxis Y
ScaleFactor 1.0
[SegmentNames&Hierarchy]
Hips	GLOBAL
Spine	Hips
Spine1	Spine
Spine2	Spine1
Neck	Spine2
Head	Neck
LeftEye	Head
RightEye	Head
LeftShoulder	Spine2
LeftArm	LeftShoulder
LeftForeArm	LeftArm
LeftHand	LeftForeArm
LeftHandThumb1	LeftHand
LeftHandThumb2	LeftHandThumb1
LeftHandThumb3	LeftHandThumb2
LeftHandThumb4	LeftHandThumb3
LeftHandIndex1	LeftHand
LeftHandIndex2	LeftHandIndex1
LeftHandIndex3	LeftHandIndex2
LeftHandIndex4	LeftHandIndex3
LeftHandMiddle1	LeftHand
LeftHandMiddle2	LeftHandMiddle1
LeftHandMiddle3	LeftHandMiddle2
LeftHandMiddle4	LeftHandMiddle3
LeftHandRing1	LeftHand
LeftHandRing2	LeftHandRing1
LeftHandRing3	LeftHandRing2
LeftHandRing4	LeftHandRing3
LeftHandPinky1	LeftHand
LeftHandPinky2	LeftHandPinky1
LeftHandPinky3	LeftHandPinky2
LeftHandPinky4	LeftHandPinky3
RightShoulder	Spine2
RightArm	RightShoulder
RightForeArm	RightArm
RightHand	RightForeArm
RightHandPinky1	RightHand
RightHandPinky2	RightHandPinky1
RightHandPinky3	RightHandPinky2
RightHandPinky4	RightHandPinky3
RightHandRing1	RightHand
RightHandRing2	RightHandRing1
RightHandRing3	RightHandRing2
RightHandRing4	RightHandRing3
RightHandMiddle1	RightHand
RightHandMiddle2	RightHandMiddle1
RightHandMiddle3	RightHandMiddle2
RightHandMiddle4	RightHandMiddle3
RightHandIndex1	RightHand
RightHandIndex2	RightHandIndex1
RightHandIndex3	RightHandIndex2
RightHandIndex4	RightHandIndex3
RightHandThumb1	RightHand
RightHandThumb2	RightHandThumb1
RightHandThumb3	RightHandThumb2
RightHandThumb4	RightHandThumb3
LeftUpLeg	Hips
LeftLeg	LeftUpLeg
LeftFoot	LeftLeg
LeftToeBase	LeftFoot
RightUpLeg	Hips
RightLeg	RightUpLeg
RightFoot	RightLeg
RightToeBase	RightFoot
[BasePosition]
Hips	0	0	0	0	0	0	1
Spine	0	0	0	0	0	0	1
Spine1	0	0	0	0	0	0	1
Spine2	0	0	0	0	0	0	1
Neck	0	0	0	0	0	0	1
Head	0	0	0	0	0	0	1
LeftEye	0	0	0	0	0	0	1
RightEye	0	0	0	0	0	0	1
LeftShoulder	0	0	0	0	0	0	1
LeftArm	0	0	0	0	0	0	1
LeftForeArm	0	0	0	0	0	0	1
LeftHand	0	0	0	0	0	0	1
LeftHandThumb1	0	0	0	0	0	0	1
LeftHandThumb2	0	0	0	0	0	0	1
LeftHandThumb3	0	0	0	0	0	0	1
LeftHandThumb4	0	0	0	0	0	0	1
LeftHandIndex1	0	0	0	0	0	0	1
LeftHandIndex2	0	0	0	0	0	0	1
LeftHandIndex3	0	0	0	0	0	0	1
LeftHandIndex4	0	0	0	0	0	0	1
LeftHandMiddle1	0	0	0	0	0	0	1
LeftHandMiddle2	0	0	0	0	0	0	1
LeftHandMiddle3	0	0	0	0	0	0	1
LeftHandMiddle4	0	0	0	0	0	0	1
LeftHandRing1	0	0	0	0	0	0	1
LeftHandRing2	0	0	0	0	0	0	1
LeftHandRing3	0	0	0	0	0	0	1
LeftHandRing4	0	0	0	0	0	0	1
LeftHandPinky1	0	0	0	0	0	0	1
LeftHandPinky2	0	0	0	0	0	0	1
LeftHandPinky3	0	0	0	0	0	0	1
LeftHandPinky4	0	0	0	0	0	0	1
RightShoulder	0	0	0	0	0	0	1
RightArm	0	0	0	0	0	0	1
RightForeArm	0	0	0	0	0	0	1
RightHand	0	0	0	0	0	0	1
RightHandPinky1	0	0	0	0	0	0	1
RightHandPinky2	0	0	0	0	0	0	1
RightHandPinky3	0	0	0	0	0	0	1
RightHandPinky4	0	0	0	0	0	0	1
RightHandRing1	0	0	0	0	0	0	1
RightHandRing2	0	0	0	0	0	0	1
RightHandRing3	0	0	0	0	0	0	1
RightHandRing4	0	0	0	0	0	0	1
RightHandMiddle1	0	0	0	0	0	0	1
RightHandMiddle2	0	0	0	0	0	0	1
RightHandMiddle3	0	0	0	0	0	0	1
RightHandMiddle4	0	0	0	0	0	0	1
RightHandIndex1	0	0	0	0	0	0	1
RightHandIndex2	0	0	0	0	0	0	1
RightHandIndex3	0	0	0	0	0	0	1
RightHandIndex4	0	0	0	0	0	0	1
RightHandThumb1	0	0	0	0	0	0	1
RightHandThumb2	0	0	0	0	0	0	1
RightHandThumb3	0	0	0	0	0	0	1
RightHandThumb4	0	0	0	0	0	0	1
LeftUpLeg	0	0	0	0	0	0	1
LeftLeg	0	0	0	0	0	0	1
LeftFoot	0	0	0	0	0	0	1
LeftToeBase	0	0	0	0	0	0	1
RightUpLeg	0	0	0	0	0	0	1
RightLeg	0	0	0	0	0	0	1
RightFoot	0	0	0	0	0	0	1
RightToeBase	0	0	0	0	0	0	1
[Hips]
41	-18.04654312	852.880249	0.170481801	-22.5906868	29.63542366	-13.5187254	1.0
42	-19.93675041	854.7382202	-1.234285831	-22.28167534	27.31807327	-12.97298145	1.0
43	-23.31809235	869.7341919	-0.6886005402	-21.75241661	24.81368065	-12.85835361	1.0
44	-27.7594738	894.4470825	1.887240171	-20.64650726	23.17556572	-13.91852093	1.0
[Spine]
41	9.234152094e-05	101.8158798	1.31520927	18.28954124	6.013030052	-19.64058685	1.0
42	9.234152094e-05	101.8158798	1.31520927	17.06573296	5.756985664	-20.27736664	1.0
43	9.234152094e-05	101.8158798	1.31520927	15.08230686	5.019299507	-20.69854546	1.0
44	9.234152094e-05	101.8158798	1.31520927	12.89824009	3.387827873	-19.78393364	1.0
[Spine1]
41	2.519402869e-06	100.8345108	-10.00804329	11.92594528	1.551293373	-6.66801548	1.0
42	2.519402869e-06	100.8345108	-10.00804329	11.55661201	1.484975815	-6.584442616	1.0
43	2.519402869e-06	100.8345108	-10.00804329	10.9025631	1.314587951	-6.505561829	1.0
44	2.519402869e-06	100.8345108	-10.00804329	9.747238159	0.9587728381	-6.103251934	1.0
[Spine2]
41	3.4574864e-06	91.00010681	-13.73417091	2.739763975	0.9672786593	-3.43724966	1.0
42	3.4574864e-06	91.00010681	-13.73417091	2.79352355	0.9490320683	-3.42991066	1.0
43	3.4574864e-06	91.00010681	-13.73417091	2.709647417	0.8450468183	-3.493527889	1.0
44	3.4574864e-06	91.00010681	-13.73417091	2.306061506	0.5961880684	-3.320665836	1.0
[Neck]
41	6.334285445e-06	166.7166901	-25.16167831	9.420728683	-0.8170579672	0.3642524183	1.0
42	6.334285445e-06	166.7166901	-25.16167831	9.566730499	-0.6721007228	0.4805959463	1.0
43	6.334285445e-06	166.7166901	-25.16167831	9.934950829	-0.4924705029	0.6861317754	1.0
44	6.334285445e-06	166.7166901	-25.16167831	10.42603207	-0.3053681552	0.5905067921	1.0
[Head]
41	-4.242318937e-06	96.17874908	16.85007477	-4.465554714	-14.82814884	16.03155899	1.0
42	-4.242318937e-06	96.17874908	16.85007477	-4.380373001	-14.15396595	18.00428581	1.0
43	-4.242318937e-06	96.17874908	16.85007477	-2.6232934	-13.70896816	20.03366661	1.0
44	-4.242318937e-06	96.17874908	16.85007477	-0.7465566993	-13.47363186	20.83594131	1.0
[LeftEye]
41	30.67560577	64.09507751	92.83554077	0	0	0	1.0
42	30.67560577	64.09507751	92.83554077	0	0	0	1.0
43	30.67560577	64.09507751	92.83554077	0	0	0	1.0
44	30.67560577	64.09507751	92.83554077	0	0	0	1.0
[RightEye]
41	-30.67550468	64.09500122	92.83547211	0	0	0	1.0
42	-30.67550468	64.09500122	92.83547211	0	0	0	1.0
43	-30.67550468	64.09500122	92.83547211	0	0	0	1.0
44	-30.67550468	64.09500122	92.83547211	0	0	0	1.0
[LeftShoulder]
41	45.70446396	109.4598465	-26.27988052	2.741394281	-30.0436821	-2.103672028	1.0
42	45.70446396	109.4598465	-26.27988052	1.884931684	-27.18536758	-3.560219049	1.0
43	45.70446396	109.4598465	-26.27988052	1.294008136	-22.82589912	-5.393407822	1.0
44	45.70446396	109.4598465	-26.27988052	3.231362581	-18.44411469	-1.322350144	1.0
[LeftArm]
41	105.9236984	-5.245829105	-22.32120132	-81.70981598	0.5363196731	-18.25362015	1.0
42	105.9236984	-5.245829105	-22.32120132	-88.51329803	-2.814677954	-9.385593414	1.0
43	105.9236984	-5.245829105	-22.32120132	-96.88119507	-8.989376068	1.047768593	1.0
44	105.9236984	-5.245829105	-22.32120132	-104.2913818	-14.2266407	9.982466698	1.0
[LeftForeArm]
41	278.4151917	-0.0008942864952	0.0003745891154	-14.17128468	-49.95905304	8.665624619	1.0
42	278.4151917	-0.0008942864952	0.0003745891154	-7.472172737	-52.02941895	2.497805357	1.0
43	278.4151917	-0.0008942864952	0.0003745891154	4.155038357	-53.77467728	-6.899726868	1.0
44	278.4151917	-0.0008942864952	0.0003745891154	8.522032738	-53.95116043	-7.445843697	1.0
[LeftHand]
41	283.2883911	-0.0001744071778	0.0003780452244	-68.79842377	-33.66501999	-8.289149284	1.0
42	283.2883911	-0.0001744071778	0.0003780452244	-68.76855469	-34.02369308	-6.697240829	1.0
43	283.2883911	-0.0001744071778	0.0003780452244	-69.06934357	-33.65176773	-5.733542919	1.0
44	283.2883911	-0.0001744071778	0.0003780452244	-69.86508942	-31.74204063	-3.715349674	1.0
[LeftHandThumb1]
41	24.66140366	-15.7504921	26.82413483	4.585299015	-1.918203235	11.74982262	1.0
42	24.66140366	-15.7504921	26.82413483	4.58948946	-1.921355486	11.75265121	1.0
43	24.66140366	-15.7504921	26.82413483	4.590870857	-1.922400117	11.75359249	1.0
44	24.66140366	-15.7504921	26.82413483	4.590658188	-1.922241569	11.75345898	1.0
[LeftHandThumb2]
41	32.29803848	-18.6469059	18.64681244	19.65457726	24.37065887	16.39234352	1.0
42	32.29803848	-18.6469059	18.64681244	19.65836334	24.3649025	16.4006691	1.0
43	32.29803848	-18.6469059	18.64681244	19.65520287	24.38262939	16.37608528	1.0
44	32.29803848	-18.6469059	18.64681244	19.62773514	24.57664108	16.09089279	1.0
[LeftHandThumb3]
41	26.52565002	-15.31492996	15.31471634	7.893064499	14.18631744	22.37408447	1.0
42	26.52565002	-15.31492996	15.31471634	7.894769192	14.18435478	22.37503052	1.0
43	26.52565002	-15.31492996	15.31471634	7.895314693	14.18372822	22.37533951	1.0
44	26.52565002	-15.31492996	15.31471634	7.895225525	14.18383026	22.37528801	1.0
[LeftHandThumb4]
41	19.54566956	-11.2850008	11.28492165	0	0	0	1.0
42	19.54566956	-11.2850008	11.28492165	0	0	0	1.0
43	19.54566956	-11.2850008	11.28492165	0	0	0	1.0
44	19.54566956	-11.2850008	11.28492165	0	0	0	1.0
[LeftHandIndex1]
41	91.09301758	-5.170834064	22.6007309	-1.057997704	6.968188763	-9.187303543	1.0
42	91.09301758	-5.170834064	22.6007309	-1.056964874	6.965281963	-9.174171448	1.0
43	91.09301758	-5.170834064	22.6007309	-1.061622858	6.974868774	-9.202143669	1.0
44	91.09301758	-5.170834064	22.6007309	-1.110359311	7.0875144	-9.539935112	1.0
[LeftHandIndex2]
41	36.76409531	-6.939138257e-05	0.0002924251603	1.722003102	1.487188101	-12.63335037	1.0
42	36.76409531	-6.939138257e-05	0.0002924251603	1.722098112	1.486391664	-12.62771606	1.0
43	36.76409531	-6.939138257e-05	0.0002924251603	1.72155261	1.489582896	-12.6519165	1.0
44	36.76409531	-6.939138257e-05	0.0002924251603	1.717997193	1.526335955	-12.92576694	1.0
[LeftHandIndex3]
41	28.83062553	0.000385119667	-0.0004276481632	0.7288375497	1.246703386	-11.47244549	1.0
42	28.83062553	0.000385119667	-0.0004276481632	0.7288959622	1.245289445	-11.46018028	1.0
43	28.83062553	0.000385119667	-0.0004276481632	0.7280406356	1.250118494	-11.50227642	1.0
44	28.83062553	0.000385119667	-0.0004276481632	0.726970315	1.306521416	-11.98637962	1.0
[LeftHandIndex4]
41	23.92720032	0.0003702590766	0.0003355443478	0	0	0	1.0
42	23.92720032	0.0003702590766	0.0003355443478	0	0	0	1.0
43	23.92720032	0.0003702590766	0.0003355443478	0	0	0	1.0
44	23.92720032	0.0003702590766	0.0003355443478	0	0	0	1.0
[LeftHandMiddle1]
41	95.33401489	-0.000339240476	0.0001393702551	0.6169314981	3.509219885	-10.09913445	1.0
42	95.33401489	-0.000339240476	0.0001393702551	0.617389977	3.507508755	-10.08555317	1.0
43	95.33401489	-0.000339240476	0.0001393702551	0.6156105399	3.510643721	-10.113904	1.0
44	95.33401489	-0.000339240476	0.0001393702551	0.5993663073	3.551666975	-10.45843983	1.0
[LeftHandMiddle2]
41	36.98236847	1.961359158e-05	0.0001791696704	-1.204688668	0.8928223252	-8.929098129	1.0
42	36.98236847	1.961359158e-05	0.0001791696704	-1.203302741	0.8921931386	-8.924788475	1.0
43	36.98236847	1.961359158e-05	0.0001791696704	-1.203164697	0.8934812546	-8.941842079	1.0
44	36.98236847	1.961359158e-05	0.0001791696704	-1.205256701	0.9093666673	-9.136142731	1.0
[LeftHandMiddle3]
41	29.50921631	-0.0003937608562	0.0001644795993	0.05828594416	1.209669232	-11.41574478	1.0
42	29.50921631	-0.0003937608562	0.0001644795993	0.05843131244	1.208180308	-11.40158176	1.0
43	29.50921631	-0.0003937608562	0.0001644795993	0.05753605813	1.212453961	-11.44307327	1.0
44	29.50921631	-0.0003937608562	0.0001644795993	0.05568426847	1.263283491	-11.92788219	1.0
[LeftHandMiddle4]
41	28.3390255	-0.0003893481917	-9.504223272e-05	0	0	0	1.0
42	28.3390255	-0.0003893481917	-9.504223272e-05	0	0	0	1.0
43	28.3390255	-0.0003893481917	-9.504223272e-05	0	0	0	1.0
44	28.3390255	-0.0003893481917	-9.504223272e-05	0	0	0	1.0
[LeftHandRing1]
41	91.04527283	-0.4393950403	-18.65084648	-2.261254311	3.7717309	-9.776155472	1.0
42	91.04527283	-0.4393950403	-18.65084648	-2.260385752	3.7701478	-9.764222145	1.0
43	91.04527283	-0.4393950403	-18.65084648	-2.26241827	3.771721601	-9.793261528	1.0
44	91.04527283	-0.4393950403	-18.65084648	-2.282695055	3.795892477	-10.13949108	1.0
[LeftHandRing2]
41	31.54026794	-6.55346812e-05	0.000104257444	-5.210474968	0.9298775792	-19.82431221	1.0
42	31.54026794	-6.55346812e-05	0.000104257444	-5.209139347	0.9300792217	-19.81435966	1.0
43	31.54026794	-6.55346812e-05	0.000104257444	-5.20997858	0.930526197	-19.8521347	1.0
44	31.54026794	-6.55346812e-05	0.000104257444	-5.217198849	0.936160326	-20.28305435	1.0
[LeftHandRing3]
41	29.37672424	-0.0004545861739	-6.864757597e-05	-3.086817503	1.032358527	-13.10929775	1.0
42	29.37672424	-0.0004545861739	-6.864757597e-05	-3.085446835	1.031912088	-13.09639549	1.0
43	29.37672424	-0.0004545861739	-6.864757597e-05	-3.086289167	1.033990145	-13.13848495	1.0
44	29.37672424	-0.0004545861739	-6.864757597e-05	-3.09184289	1.058483601	-13.62528229	1.0
[LeftHandRing4]
41	26.47452545	-0.0004980441299	7.070515267e-07	0	0	0	1.0
42	26.47452545	-0.0004980441299	7.070515267e-07	0	0	0	1.0
43	26.47452545	-0.0004980441299	7.070515267e-07	0	0	0	1.0
44	26.47452545	-0.0004980441299	7.070515267e-07	0	0	0	1.0
[LeftHandPinky1]
41	80.77777863	-4.886682034	-38.06066895	-7.471587181	3.744060516	-10.40360355	1.0
42	80.77777863	-4.886682034	-38.06066895	-7.468391418	3.742909908	-10.38980865	1.0
43	80.77777863	-4.886682034	-38.06066895	-7.470046997	3.741661072	-10.4183073	1.0
44	80.77777863	-4.886682034	-38.06066895	-7.494626045	3.73476243	-10.76566124	1.0
[LeftHandPinky2]
41	36.00034332	-2.252215199e-05	-0.0002623879409	0.06583234668	0.7212946415	-13.15806866	1.0
42	36.00034332	-2.252215199e-05	-0.0002623879409	0.06406269968	0.7217742801	-13.15122128	1.0
43	36.00034332	-2.252215199e-05	-0.0002623879409	0.063147448	0.7246910334	-13.17600727	1.0
44	36.00034332	-2.252215199e-05	-0.0002623879409	0.06251046062	0.7541052103	-13.46047592	1.0
[LeftHandPinky3]
41	21.14211655	0.0001953828178	-2.864415183e-05	-5.256639957	2.028198004	-17.15363503	1.0
42	21.14211655	0.0001953828178	-2.864415183e-05	-5.253283024	2.026776552	-17.14213371	1.0
43	21.14211655	0.0001953828178	-2.864415183e-05	-5.254593849	2.026919365	-17.1848278	1.0
44	21.14211655	0.0001953828178	-2.864415183e-05	-5.27202034	2.035035372	-17.67237091	1.0
[LeftHandPinky4]
41	19.7568264	0.0001240565616	-0.0004430140834	0	0	0	1.0
42	19.7568264	0.0001240565616	-0.0004430140834	0	0	0	1.0
43	19.7568264	0.0001240565616	-0.0004430140834	0	0	0	1.0
44	19.7568264	0.0001240565616	-0.0004430140834	0	0	0	1.0
[RightShoulder]
41	-45.69969559	109.4617615	-26.28017426	-0.8277276158	16.5939064	-43.26493454	1.0
42	-45.69969559	109.4617615	-26.28017426	-0.2193377465	16.56533051	-41.0215416	1.0
43	-45.69969559	109.4617615	-26.28017426	0.865398109	17.54609299	-37.81775284	1.0
44	-45.69969559	109.4617615	-26.28017426	2.375452757	19.70968628	-35.19120789	1.0
[RightArm]
41	-105.9284363	-5.247983932	-22.32098579	-55.37095642	6.722668171	-17.26104164	1.0
42	-105.9284363	-5.247983932	-22.32098579	-53.80982208	6.502344608	-16.46017838	1.0
43	-105.9284363	-5.247983932	-22.32098579	-52.2550087	4.796538353	-15.94424438	1.0
44	-105.9284363	-5.247983932	-22.32098579	-54.37119675	0.8080314994	-16.24405098	1.0
[RightForeArm]
41	-278.4151917	-0.0003307921579	0.0001167631053	-30.76787186	50.66209793	-25.49666405	1.0
42	-278.4151917	-0.0003307921579	0.0001167631053	-35.01448441	49.74111557	-25.50022316	1.0
43	-278.4151917	-0.0003307921579	0.0001167631053	-40.39471817	48.54964447	-25.52311707	1.0
44	-278.4151917	-0.0003307921579	0.0001167631053	-45.53550339	47.33427048	-25.37251282	1.0
[RightHand]
41	-283.2883911	-1.581417109e-06	0.000558160129	-57.60070801	21.19225121	13.38409233	1.0
42	-283.2883911	-1.581417109e-06	0.000558160129	-54.08082581	19.36510849	12.78331661	1.0
43	-283.2883911	-1.581417109e-06	0.000558160129	-50.22268295	17.2989254	12.14573956	1.0
44	-283.2883911	-1.581417109e-06	0.000558160129	-46.59423447	16.68031693	9.745426178	1.0
[RightHandPinky1]
41	-80.76674652	-4.88459301	-38.06010437	-10.15266991	-4.794993877	15.43601799	1.0
42	-80.76674652	-4.88459301	-38.06010437	-8.947554588	-4.187137604	12.93052578	1.0
43	-80.76674652	-4.88459301	-38.06010437	-7.976263046	-3.686578035	10.91468811	1.0
44	-80.76674652	-4.88459301	-38.06010437	-7.700960159	-3.521691322	10.58497906	1.0
[RightHandPinky2]
41	-36.00034332	0.0003967665543	0.0005081442068	2.155137777	0.8810824156	12.8967371	1.0
42	-36.00034332	0.0003967665543	0.0005081442068	1.252331614	0.2981745303	13.01669598	1.0
43	-36.00034332	0.0003967665543	0.0005081442068	0.5191914439	-0.1763338	13.12810707	1.0
44	-36.00034332	0.0003967665543	0.0005081442068	0.2953999639	-0.3401066363	13.39545918	1.0
[RightHandPinky3]
41	-21.14211655	0.0001513792522	0.0001479376951	-8.225687981	-3.090946198	16.4667511	1.0
42	-21.14211655	0.0001513792522	0.0001479376951	-6.900584221	-2.469941854	16.78469658	1.0
43	-21.14211655	0.0001513792522	0.0001479376951	-5.82491827	-1.965588927	17.06654549	1.0
44	-21.14211655	0.0001513792522	0.0001479376951	-5.512043476	-1.810053945	17.55168724	1.0
[RightHandPinky4]
41	-19.7568264	-0.000185219571	-9.839841368e-06	0	0	0	1.0
42	-19.7568264	-0.000185219571	-9.839841368e-06	0	0	0	1.0
43	-19.7568264	-0.000185219571	-9.839841368e-06	0	0	0	1.0
44	-19.7568264	-0.000185219571	-9.839841368e-06	0	0	0	1.0
[RightHandRing1]
41	-91.03588104	-0.4391434789	-18.65072441	-2.476986408	-4.500288486	12.77489376	1.0
42	-91.03588104	-0.4391434789	-18.65072441	-2.357973814	-4.03549099	11.16297054	1.0
43	-91.03588104	-0.4391434789	-18.65072441	-2.265069246	-3.656818628	9.871415138	1.0
44	-91.03588104	-0.4391434789	-18.65072441	-2.253561258	-3.554724932	9.761975288	1.0
[RightHandRing2]
41	-31.54026794	0.0002399729856	0.0004885121016	-6.254067898	-0.2075104266	18.94709396	1.0
42	-31.54026794	0.0002399729856	0.0004885121016	-5.765139103	-0.346559912	19.33856773	1.0
43	-31.54026794	0.0002399729856	0.0004885121016	-5.36866188	-0.4593490958	19.67717743	1.0
44	-31.54026794	0.0002399729856	0.0004885121016	-5.253670216	-0.4908252656	20.13328934	1.0
[RightHandRing3]
41	-29.37672424	-0.0004160065437	-0.0003966063377	-4.202273846	-0.6010690331	14.0107336	1.0
42	-29.37672424	-0.0004160065437	-0.0003966063377	-3.699269533	-0.6714200974	13.62388706	1.0
43	-29.37672424	-0.0004160065437	-0.0003966063377	-3.291379452	-0.7290608883	13.33292675	1.0
44	-29.37672424	-0.0004160065437	-0.0003966063377	-3.172889709	-0.7582784295	13.64331341	1.0
[RightHandRing4]
41	-26.47452545	0.0002460821415	-2.294923434e-05	0	0	0	1.0
42	-26.47452545	0.0002460821415	-2.294923434e-05	0	0	0	1.0
43	-26.47452545	0.0002460821415	-2.294923434e-05	0	0	0	1.0
44	-26.47452545	0.0002460821415	-2.294923434e-05	0	0	0	1.0
[RightHandMiddle1]
41	-95.32502747	-0.0001631230261	0.0001679184206	0.7397731543	-3.866121054	14.94457245	1.0
42	-95.32502747	-0.0001631230261	0.0001679184206	0.7138175368	-3.563539505	12.5202446	1.0
43	-95.32502747	-0.0001631230261	0.0001679184206	0.6862708926	-3.315227509	10.56871319	1.0
44	-95.32502747	-0.0001631230261	0.0001679184206	0.6639755368	-3.266345501	10.25712967	1.0
[RightHandMiddle2]
41	-36.98236847	0.000150669599	-0.0002254552383	-2.640594244	-0.9833693504	8.360404968	1.0
42	-36.98236847	0.000150669599	-0.0002254552383	-2.00440526	-0.8622046113	8.617285728	1.0
43	-36.98236847	0.000150669599	-0.0002254552383	-1.487817049	-0.76443398	8.835283279	1.0
44	-36.98236847	0.000150669599	-0.0002254552383	-1.332127213	-0.7443111539	9.061056137	1.0
[RightHandMiddle3]
41	-29.50921631	-3.113244929e-06	-3.03402544e-06	0.2011668831	-1.187505364	13.75174618	1.0
42	-29.50921631	-3.113244929e-06	-3.03402544e-06	0.1496925503	-1.094511986	12.73733139	1.0
43	-29.50921631	-3.113244929e-06	-3.03402544e-06	0.1064352915	-1.020690799	11.93666649	1.0
44	-29.50921631	-3.113244929e-06	-3.03402544e-06	0.09015370905	-1.031454206	12.09058857	1.0
[RightHandMiddle4]
41	-28.3390255	8.05324089e-05	0.0005378770875	0	0	0	1.0
42	-28.3390255	8.05324089e-05	0.0005378770875	0	0	0	1.0
43	-28.3390255	8.05324089e-05	0.0005378770875	0	0	0	1.0
44	-28.3390255	8.05324089e-05	0.0005378770875	0	0	0	1.0
[RightHandIndex1]
41	-91.08280945	-5.167889595	22.60116386	-0.6913453937	-6.686765194	13.73183441	1.0
42	-91.08280945	-5.167889595	22.60116386	-0.8300327659	-6.671308041	11.47093296	1.0
43	-91.08280945	-5.167889595	22.60116386	-0.9496492147	-6.660416126	9.651165962	1.0
44	-91.08280945	-5.167889595	22.60116386	-1.026707053	-6.742722988	9.375510216	1.0
[RightHandIndex2]
41	-36.76409531	0.0001922715601	0.0003235567128	1.795441151	-1.136613965	11.36757851	1.0
42	-36.76409531	0.0001922715601	0.0003235567128	1.776075125	-1.175748706	11.93519211	1.0
43	-36.76409531	0.0001922715601	0.0003235567128	1.759791613	-1.208931208	12.40940666	1.0
44	-36.76409531	0.0001922715601	0.0003235567128	1.751908302	-1.244417548	12.77877235	1.0
[RightHandIndex3]
41	-28.83062553	-0.0004960121587	0.0004044897505	0.9522916675	-1.039370179	11.69146729	1.0
42	-28.83062553	-0.0004960121587	0.0004044897505	0.8646705151	-1.026029706	11.60600567	1.0
43	-28.83062553	-0.0004960121587	0.0004044897505	0.7931443453	-1.017379761	11.55983162	1.0
44	-28.83062553	-0.0004960121587	0.0004044897505	0.7690419555	-1.052606106	11.94313812	1.0
[RightHandIndex4]
41	-23.92720032	0.0002681470069	0.0002802013478	0	0	0	1.0
42	-23.92720032	0.0002681470069	0.0002802013478	0	0	0	1.0
43	-23.92720032	0.0002681470069	0.0002802013478	0	0	0	1.0
44	-23.92720032	0.0002681470069	0.0002802013478	0	0	0	1.0
[RightHandThumb1]
41	-24.64805984	-15.72714233	26.82626534	-1.291598082	0.3010498881	-7.936157703	1.0
42	-24.64805984	-15.72714233	26.82626534	0.838991046	1.703031778	-9.340762138	1.0
43	-24.64805984	-15.72714233	26.82626534	2.544803143	2.874953508	-10.4485054	1.0
44	-24.64805984	-15.72714233	26.82626534	3.061089039	3.2361691	-10.78143311	1.0
[RightHandThumb2]
41	-32.29771805	-18.6470871	18.64718437	17.77356529	-26.6937027	-16.31759071	1.0
42	-32.29771805	-18.6470871	18.64718437	19.07763863	-26.41635132	-16.907938	1.0
43	-32.29771805	-18.6470871	18.64718437	20.12990379	-26.19381714	-17.36175919	1.0
44	-32.29771805	-18.6470871	18.64718437	20.41479111	-26.28964615	-17.26327896	1.0
[RightHandThumb3]
41	-26.52605057	-15.31449318	15.31445599	9.957054138	-21.49929428	-23.54743576	1.0
42	-26.52605057	-15.31449318	15.31445599	10.78929043	-20.54304314	-24.10837364	1.0
43	-26.52605057	-15.31449318	15.31445599	11.45720005	-19.76303482	-24.5518837	1.0
44	-26.52605057	-15.31449318	15.31445599	11.65961266	-19.52505112	-24.68535614	1.0
[RightHandThumb4]
41	-19.54580498	-11.28461742	11.28507042	0	0	0	1.0
42	-19.54580498	-11.28461742	11.28507042	0	0	0	1.0
43	-19.54580498	-11.28461742	11.28507042	0	0	0	1.0
44	-19.54580498	-11.28461742	11.28507042	0	0	0	1.0
[LeftUpLeg]
41	82.07781982	-67.51714325	-15.99555588	-28.59116554	-11.1664896	25.45547485	1.0
42	82.07781982	-67.51714325	-15.99555588	-27.38764	-10.70035076	25.10824776	1.0
43	82.07781982	-67.51714325	-15.99555588	-25.09942245	-9.915709496	24.88957977	1.0
44	82.07781982	-67.51714325	-15.99555588	-22.95598221	-8.539142609	25.78019714	1.0
[LeftLeg]
41	-4.110157988e-06	-443.7047119	2.846426487	71.96502686	5.689375401	-12.02887726	1.0
42	-4.110157988e-06	-443.7047119	2.846426487	71.73483276	5.242927074	-11.531703	1.0
43	-4.110157988e-06	-443.7047119	2.846426487	69.0508194	4.290213108	-10.18172932	1.0
44	-4.110157988e-06	-443.7047119	2.846426487	63.77515411	2.821866512	-8.892788887	1.0
[LeftFoot]
41	4.716393505e-06	-444.278717	-29.82190704	-31.50151634	-3.105611324	-0.3775101602	1.0
42	4.716393505e-06	-444.278717	-29.82190704	-31.75261307	-2.035628319	-1.154514432	1.0
43	4.716393505e-06	-444.278717	-29.82190704	-30.78456116	-1.08147347	-2.105487108	1.0
44	4.716393505e-06	-444.278717	-29.82190704	-28.20395851	-0.8352620006	-3.337292433	1.0
[LeftToeBase]
41	-2.960988058e-05	-87.28669739	107.1055984	-3.267637491	2.044942903e-06	7.723228919e-06	1.0
42	-2.960988058e-05	-87.28669739	107.1055984	-3.574645996	-8.473660273e-06	5.689754744e-06	1.0
43	-2.960988058e-05	-87.28669739	107.1055984	-3.951039076	9.867511835e-06	3.22361052e-06	1.0
44	-2.960988058e-05	-87.28669739	107.1055984	-4.129493237	1.093626179e-05	-5.296169547e-07	1.0
[RightUpLeg]
41	-82.07795715	-67.51662445	-15.99559402	-10.97985554	-25.13268471	-3.349195957	1.0
42	-82.07795715	-67.51662445	-15.99559402	-11.16392517	-25.21936417	-4.005206108	1.0
43	-82.07795715	-67.51662445	-15.99559402	-10.1821146	-25.62527847	-3.836522102	1.0
44	-82.07795715	-67.51662445	-15.99559402	-7.822014809	-26.52751541	-1.916022539	1.0
[RightLeg]
41	8.435572454e-07	-443.7053833	2.861563921	68.16578674	1.170185328	-10.53716564	1.0
42	8.435572454e-07	-443.7053833	2.861563921	68.03581238	0.6776421666	-10.35179424	1.0
43	8.435572454e-07	-443.7053833	2.861563921	64.72394562	-0.1517622024	-9.81730175	1.0
44	8.435572454e-07	-443.7053833	2.861563921	57.65694809	-1.41385448	-9.23767662	1.0
[RightFoot]
41	9.644581951e-06	-444.2773132	-29.83789063	-28.72073174	-1.560379028	18.30043793	1.0
42	9.644581951e-06	-444.2773132	-29.83789063	-27.7619648	-0.4639638066	17.92741585	1.0
43	9.644581951e-06	-444.2773132	-29.83789063	-25.78309059	0.4198232889	17.2648983	1.0
44	9.644581951e-06	-444.2773132	-29.83789063	-24.10918808	1.328824759	16.4391613	1.0
[RightToeBase]
41	-2.360438157e-05	-87.28668976	107.1056061	-13.62042141	-1.583052494e-06	-5.965779565e-06	1.0
42	-2.360438157e-05	-87.28668976	107.1056061	-13.52557659	-6.171154837e-06	4.913866178e-06	1.0
43	-2.360438157e-05	-87.28668976	107.1056061	-12.58601856	2.525657692e-06	8.221394637e-06	1.0
44	-2.360438157e-05	-87.28668976	107.1056061	-10.23250008	8.565096323e-06	5.34252149e-06	1.0
[EndOfFile]
